<?xml version="1.0" encoding="UTF-8"?>
<svg width="22px" height="22px" viewBox="0 0 22 22" version="1.1" xmlns="http://www.w3.org/2000/svg" xmlns:xlink="http://www.w3.org/1999/xlink">
    <!-- Generator: Sketch 56.3 (81716) - https://sketch.com -->
    <title>编组 3</title>
    <desc>Created with Sketch.</desc>
    <g id="页面1" stroke="none" stroke-width="1" fill="none" fill-rule="evenodd">
        <g id="room" transform="translate(-378.000000, -64.000000)">
            <g id="编组-3" transform="translate(379.000000, 65.000000)">
                <circle id="椭圆形" stroke="#DDDDDD" stroke-width="2" cx="10" cy="10" r="10"></circle>
                <path d="M10.8046875,15.8789062 L8.87109375,15.8789062 L8.87109375,14.0039062 L10.8046875,14.0039062 L10.8046875,15.8789062 Z M10.6289062,12.5976562 L9.046875,12.5976562 L9.046875,12.0117188 C9.0078123,10.8789006 9.51561973,9.96094102 10.5703125,9.2578125 C11.664068,8.47655859 12.1914064,7.69531641 12.1523438,6.9140625 C12.0351557,5.82030703 11.4101619,5.23437539 10.2773438,5.15625 C8.91014941,5.15625 8.05078301,5.93749219 7.69921875,7.5 L6,7.08984375 C6.46875234,4.70701934 7.97264355,3.57421816 10.5117188,3.69140625 C12.660167,3.80859434 13.8515613,4.82420918 14.0859375,6.73828125 C14.1640629,7.9882875 13.4414139,9.08202656 11.9179688,10.0195312 C11.0195268,10.6054717 10.5898436,11.3085896 10.6289062,12.1289062 C10.6289062,12.3242197 10.6289062,12.4804682 10.6289062,12.5976562 Z" id="？" fill="#DDDDDD" fill-rule="nonzero"></path>
            </g>
        </g>
    </g>
</svg>